<svg width="151" height="33" viewBox="0 0 151 33" fill="none" xmlns="http://www.w3.org/2000/svg">
    <g clip-path="url(#clip0_2151_5275)">
    <path d="M112.109 5.8942H99.617C97.6746 6.12863 95.7992 7.26728 94.7945 9.04223C93.4884 11.6544 93.4549 14.9364 93.3544 18.0844C93.6558 21.2659 94.0577 24.5144 97.2058 25.8875L99.3826 26.4903H112.243L112.276 31.8487H98.5118C93.9573 31.7817 89.4697 28.9351 87.7282 24.8828C85.2834 18.7877 85.4174 9.67853 89.6706 4.58811C92.9861 0.971229 97.9425 0.368416 102.932 0.502375H112.109V5.8942Z" fill="white"></path>
    <path d="M29.0209 16.2759L15.2232 30.3416H1.29148L14.6203 16.2759L0.923096 2.04285H14.9552L29.0209 16.2759Z" fill="#F3912D"></path>
    <path d="M47.2727 16.3764L33.6759 30.4086H19.6438L33.1066 16.3764L19.4094 2.14331H33.4415L47.2727 16.3764Z" fill="white"></path>
    <path d="M80.6954 6.93236C79.9586 5.55928 78.8869 4.01876 77.5473 2.98058C72.5239 -0.669787 64.7208 -0.636297 58.8936 1.23912C55.1093 2.64569 52.1287 6.19558 51.4254 9.97991C50.2533 15.5392 50.4877 22.2036 53.3678 26.8922C56.3484 31.8486 62.544 32.7194 68.1703 32.5854C73.3611 32.4514 78.8869 30.3751 80.8628 25.4521C83.1066 20.1608 83.1066 12.2907 80.6954 6.93236ZM74.7677 21.3664C74.0979 23.6772 72.6244 25.9545 70.1796 26.7247C66.6297 27.6959 62.3431 27.562 60.0323 24.347C57.7215 20.7971 57.7885 15.3383 58.6592 11.0181C59.2955 8.64033 61.037 6.36303 63.5822 5.69324C67.3665 4.78902 71.7202 5.35834 73.7295 8.87475C75.471 12.3912 75.6384 17.3811 74.7677 21.3664Z" fill="white"></path>
    <path d="M144.292 18.7877L136.322 0.535828H129.322L115.96 31.8151H122.926L125.772 24.4139H139.537L142.651 31.8486H149.885C148.077 27.4615 146.067 23.0074 144.292 18.7877ZM127.882 18.7542L132.504 6.86537L137.326 18.7542H127.882Z" fill="white"></path>
    </g>
    <defs>
    <clipPath id="clip0_2151_5275">
    <rect width="150" height="32.6189" fill="white" transform="translate(0.923096)"></rect>
    </clipPath>
    </defs>
</svg>