<svg xmlns="http://www.w3.org/2000/svg" viewBox="0 0 1024 1024" width="100" height="100"><path d="M480 341.33c0 70.69-57.31 128-128 128s-128-57.31-128-128 57.31-128 128-128 128 57.31 128 128zm-341.33 469.34v-85.34c0-68.52 110.51-128 213.33-128 102.83 0 213.33 59.48 213.33 128v85.34h-426.66zm640-661.34c82.47 0 149.33 66.86 149.33 149.34s-66.86 149.33-149.33 149.33-149.33-66.86-149.33-149.33 66.86-149.34 149.33-149.34zm213.33 554.67v85.34h-170.67v-85.34c0-57.6-43.09-106.67-128-128h21.34c93.87 0 277.33 42.67 277.33 128z" fill="#464EB8"/></svg>
